ply
format ascii 1.0
comment Created by Blender 2.66 (sub 0) - www.blender.org, source file: ''
element vertex 210
property float x
property float y
property float z
property float nx
property float ny
property float nz
element face 208
property list uchar uint vertex_indices
end_header
-1.009555 0.318815 -0.760833 -0.842677 0.461654 -0.276955
-0.927960 0.480249 -0.785209 -0.627827 0.757683 -0.178045
-0.864553 0.451942 -0.924449 -0.320780 0.458388 -0.828822
-0.952504 0.238763 -0.866649 -0.453627 0.057527 -0.889309
0.408468 0.468523 -0.837881 0.163274 0.875881 -0.454054
0.816859 0.380845 -0.861075 0.667287 0.654775 -0.354839
0.799981 0.330109 -1.006344 0.440992 0.346294 -0.827998
0.367411 0.403753 -0.958599 0.036744 0.399091 -0.916166
0.822226 -0.905490 -0.809021 0.862606 -0.295328 0.410688
0.736952 -1.172827 -0.816322 0.508072 -0.651906 0.562853
0.733495 -1.270210 -0.964636 0.392773 -0.771661 -0.500229
0.828610 -1.011199 -0.931291 0.759178 -0.184606 -0.624104
-0.775737 -1.135651 -0.919906 -0.502335 -0.697256 -0.511307
-0.420447 -1.146561 -0.903394 -0.114811 -0.776147 -0.619983
-0.356743 -1.090388 -0.772482 -0.093295 -0.881252 0.463271
-0.695146 -1.044074 -0.769012 -0.373760 -0.738945 0.560533
0.384646 0.196511 -0.907952 -0.087710 -0.187658 -0.978301
0.848766 0.133980 -0.954603 0.592486 0.027558 -0.805078
1.370780 0.746252 0.926785 -0.029481 0.443678 0.895688
1.314760 0.821971 0.887631 -0.089877 0.821528 0.563005
1.101142 0.803569 0.885969 -0.317148 0.735740 0.598346
1.146144 0.745433 0.919719 -0.284341 0.370403 0.884243
0.449855 0.743199 0.463724 -0.555132 0.766106 0.323801
0.424956 0.638784 0.493459 -0.725791 0.207282 0.655904
1.710462 0.811087 0.871922 0.213416 0.912534 0.348827
1.892547 0.781799 0.854551 0.640095 0.764824 0.072542
1.432272 0.701581 0.420388 0.483016 0.666372 -0.567980
1.145219 0.756129 0.421707 0.146184 0.912900 -0.381024
1.867845 0.199791 0.849672 0.628040 -0.759117 0.171056
1.784642 0.148843 0.816492 0.616565 -0.761986 0.197974
1.541384 -0.121026 0.539661 0.569567 -0.817896 -0.081149
1.579465 -0.010703 0.508407 0.718162 -0.548509 -0.428175
1.277471 -0.003890 0.833261 -0.101352 -0.548509 0.829951
1.068409 0.007019 0.815289 -0.213355 -0.493728 0.843013
0.698145 -0.135274 0.626492 -0.339640 -0.556444 0.758263
0.903624 -0.166335 0.640125 -0.166326 -0.703940 0.690481
1.277766 -0.119374 0.270335 0.733848 -0.496170 -0.463912
1.234383 -0.211264 0.325088 0.507065 -0.853145 -0.122318
0.801308 -0.518527 -0.357043 0.639546 -0.705344 0.305704
0.843070 -0.411233 -0.378798 0.904324 -0.424177 -0.047182
0.328989 -0.243990 0.319238 -0.455855 -0.581591 0.673696
0.579884 -0.252173 0.411771 -0.185553 -0.831935 0.522904
-0.469850 0.346100 -0.354939 -0.530259 0.347972 0.773095
-0.434434 0.456959 -0.396927 -0.421705 0.689688 0.588610
-0.794812 0.511141 -0.614182 -0.389660 0.849178 0.356365
-0.928036 0.392219 -0.606146 -0.623371 0.576189 0.528550
1.288927 0.610330 0.167400 0.566454 0.566607 -0.598376
1.043488 0.653968 0.197201 0.146153 0.876949 -0.457747
0.094741 -0.547616 -0.273390 -0.111698 -0.738426 0.664998
-0.103204 -0.496702 -0.234933 -0.307138 -0.546342 0.779168
-0.608659 -0.945796 -0.620583 -0.272195 -0.633351 0.724387
-0.288377 -1.003930 -0.631992 -0.084109 -0.719016 0.689840
0.307168 0.675787 0.286604 -0.605762 0.737754 0.297830
0.310350 0.541673 0.291362 -0.791589 0.186773 0.581774
0.806761 0.331094 -0.496381 0.740501 0.660634 -0.123325
0.465169 0.433829 -0.446596 0.246559 0.968505 -0.033876
0.936617 -0.198434 -0.851941 0.971343 0.089572 -0.220130
0.968637 -0.396933 -0.868497 0.966643 -0.022797 -0.255043
0.841230 -0.474019 -0.992197 0.301157 -0.087374 -0.949553
0.869293 -0.268796 -0.947629 0.392010 0.125675 -0.911313
1.166503 0.322032 0.972014 -0.289010 0.001312 0.957305
1.171102 0.393326 0.972964 -0.290567 0.028138 0.956420
0.434077 0.221306 0.536978 -0.740776 -0.009491 0.671651
0.451707 0.144352 0.552615 -0.718711 -0.008850 0.695212
0.720048 -0.924998 -0.647026 0.518021 -0.511765 0.685354
0.808455 -0.720387 -0.684492 0.876675 -0.306833 0.370434
0.834973 0.435294 -0.705177 0.682028 0.731284 0.004791
0.452528 0.538032 -0.681082 0.259774 0.965056 -0.034028
0.427801 -0.590530 -0.885991 -0.120365 -0.249458 -0.960845
0.429475 -0.448848 -0.940653 -0.111698 -0.085513 -0.990051
0.882478 -0.613103 -0.945072 0.528459 -0.183996 -0.828761
1.308359 0.251680 0.196456 0.762627 0.057497 -0.644246
1.315017 0.106353 0.206413 0.762505 -0.004425 -0.646931
0.912107 -0.159419 -0.423917 0.970977 -0.027711 -0.237495
0.885222 -0.011960 -0.442410 0.964751 0.083163 -0.249580
1.408317 0.322032 0.983470 -0.047212 -0.064058 0.996826
1.411766 0.393326 0.988219 -0.057253 0.009308 0.998291
-1.067946 -0.459354 -0.754016 -0.934416 -0.117496 -0.336192
-1.091643 -0.266047 -0.754795 -0.924192 -0.067537 -0.375866
-0.935067 -0.373336 -0.877671 -0.302499 -0.049043 -0.951872
-0.953579 -0.519163 -0.842567 -0.369030 -0.105625 -0.923368
-0.353498 -0.153741 -0.226552 -0.546464 -0.062380 0.835139
-0.371839 -0.081149 -0.224778 -0.553514 -0.040101 0.831843
-1.093520 -0.195094 -0.650233 -0.871426 -0.031190 0.489486
-1.052127 -0.430849 -0.629266 -0.815302 -0.100528 0.570208
2.024560 0.501087 0.919571 0.936796 0.219611 0.272347
2.035565 0.393326 0.930673 0.940092 -0.058016 0.335887
1.582288 0.247395 0.443586 0.699362 0.018433 -0.714499
1.544002 0.358934 0.436939 0.693625 0.086489 -0.715079
0.320213 0.125920 0.306113 -0.762810 -0.048952 0.644734
0.321746 0.061302 0.308406 -0.753105 -0.071902 0.653951
0.934980 -0.314206 -0.735747 0.987152 -0.023408 0.157872
0.923378 -0.122924 -0.732306 0.992645 0.113529 0.041780
-0.441847 0.518348 -0.785756 -0.096347 0.948149 -0.302835
0.000076 0.556200 -0.814688 0.025147 0.895138 -0.445051
-0.065158 0.477397 -0.958163 -0.025819 0.442030 -0.896603
-0.486951 0.464669 -0.925483 -0.068545 0.478500 -0.875393
1.821719 0.322032 0.950844 0.239906 -0.284799 0.928068
1.843997 0.393326 0.967074 0.202857 -0.094668 0.974609
1.652430 0.393326 1.003474 0.072604 -0.028016 0.996948
1.650131 0.322032 0.994925 0.100101 -0.150731 0.983490
0.552608 0.686697 0.256803 -0.103671 0.959441 -0.262123
0.798048 0.697607 0.227002 0.047334 0.908261 -0.415662
0.123577 0.536564 -0.396811 0.082430 0.996490 0.012360
-0.254382 0.536564 -0.396869 -0.147221 0.979156 0.139744
0.546997 -0.558529 -0.334445 0.179846 -0.813837 0.552507
0.292687 -0.598531 -0.311847 0.020997 -0.766259 0.642170
0.031905 -1.062063 -0.643401 0.007050 -0.716147 0.697897
0.375976 -0.993531 -0.645213 0.106876 -0.652333 0.750328
-0.519879 0.238761 -0.871881 -0.028779 -0.176122 -0.983917
-0.065158 0.238759 -0.894685 -0.048616 -0.181738 -0.982116
1.635587 0.067022 0.833863 0.375042 -0.762474 0.527207
1.486533 -0.014800 0.851233 0.173559 -0.741325 0.648274
1.109103 -0.197395 0.653758 0.050325 -0.875912 0.479812
1.325243 -0.159211 0.596709 0.273537 -0.935728 0.222571
1.774214 0.721384 0.907661 0.193670 0.477523 0.856990
1.528378 0.840374 0.889293 0.084078 0.901242 0.425062
1.595415 0.747071 0.933851 0.081179 0.469344 0.879269
0.359306 -1.154765 -0.796137 -0.002106 -0.834590 0.550829
-0.018339 -1.136702 -0.775953 -0.057680 -0.902799 0.426130
-0.065158 -1.157471 -0.952954 -0.097781 -0.655049 -0.749199
0.343773 -1.213840 -0.946209 -0.097629 -0.749779 -0.654408
0.858166 0.810677 0.423026 -0.024262 0.971862 -0.234230
0.654011 0.776938 0.443375 -0.130497 0.978179 -0.161534
0.830779 -0.260356 0.504304 -0.035920 -0.889584 0.455306
1.032581 -0.235810 0.414696 0.193213 -0.962157 0.192083
-0.509369 -0.543560 -0.841022 -0.005829 -0.178808 -0.983856
-0.500112 -0.398507 -0.883390 -0.014435 -0.065157 -0.997742
-0.065158 -0.423678 -0.889109 -0.058138 -0.088900 -0.994324
-0.065158 -0.567958 -0.838901 -0.054689 -0.222938 -0.973266
0.070084 0.640769 -0.656987 0.080660 0.994842 -0.061159
-0.362364 0.575955 -0.635584 -0.144261 0.989166 0.026246
0.938069 -0.517543 -0.835108 0.990814 -0.127659 -0.044038
0.907500 -0.638153 -0.801719 0.949187 -0.179144 0.258614
0.923726 -0.752187 -0.929527 0.787072 -0.232246 -0.571398
1.993307 0.322032 0.906763 0.882656 -0.407575 0.233985
1.951049 0.250738 0.882853 0.837764 -0.518357 0.171453
1.617547 0.099621 0.477152 0.749626 -0.306040 -0.586840
1.599917 0.173508 0.460369 0.717124 -0.056734 -0.694601
1.318083 0.039435 0.210998 0.766869 -0.070711 -0.637867
1.321149 -0.027483 0.215582 0.774712 -0.297678 -0.557817
0.884831 -0.303939 -0.400553 0.944762 -0.304361 -0.121555
0.898469 -0.231679 -0.412235 0.968322 -0.155675 -0.195105
1.115157 0.128879 0.893177 -0.234443 -0.409162 0.881802
1.161904 0.250738 0.971065 -0.247169 -0.207007 0.946593
0.469336 0.067399 0.568252 -0.677023 -0.150334 0.720420
0.583741 -0.033938 0.597372 -0.535356 -0.280435 0.796686
0.896863 -0.515775 -0.721958 0.925169 -0.226386 0.304544
0.915921 -0.414990 -0.728853 0.956786 -0.158513 0.243721
0.384950 -0.973026 -0.888769 -0.048677 0.182958 -0.981903
0.426127 -0.732212 -0.862909 -0.100772 -0.012909 -0.994812
1.341169 0.123424 0.905991 -0.061830 -0.471541 0.879665
1.404868 0.250738 0.978721 -0.042573 -0.274422 0.960662
-0.869698 -0.848367 -0.761124 -0.722007 -0.629841 0.286325
-1.044249 -0.652660 -0.753236 -0.921506 -0.361095 -0.142766
-0.972092 -0.664990 -0.839044 -0.548753 -0.209174 -0.809351
-0.873914 -0.900320 -0.863685 -0.688009 -0.356883 -0.631855
-0.219181 -0.361517 -0.231630 -0.460494 -0.331156 0.823573
-0.335157 -0.226333 -0.228326 -0.488723 -0.184698 0.852626
-1.010735 -0.666603 -0.608298 -0.693716 -0.401471 0.597949
-0.809697 -0.806200 -0.614440 -0.462905 -0.549333 0.695608
0.323279 -0.003317 0.310699 -0.705374 -0.178503 0.685934
0.326134 -0.123654 0.314968 -0.642811 -0.266732 0.718070
1.717514 0.158880 0.884239 0.345439 -0.684317 0.642109
1.799440 0.250738 0.934615 0.287210 -0.489120 0.823542
1.647831 0.250738 0.986377 0.150517 -0.357372 0.921720
1.567182 0.117969 0.918805 0.151677 -0.551836 0.820002
-0.469536 -0.917587 -0.851023 0.002350 0.196081 -0.980560
-0.518625 -0.688614 -0.830234 0.012177 0.025941 -0.999573
-0.065158 -0.712237 -0.820275 -0.036897 0.019654 -0.999115
-0.065158 -0.934854 -0.870824 -0.030549 0.221442 -0.974670
1.181090 0.539803 0.963250 -0.284188 0.057680 0.956999
1.191147 0.687297 0.953469 -0.221198 0.249489 0.942747
0.400057 0.534368 0.523195 -0.755089 0.106845 0.646840
0.417126 0.377296 0.530110 -0.739769 -0.005066 0.672811
1.419257 0.531450 0.977118 -0.054964 0.083163 0.994995
1.426800 0.670532 0.965939 -0.037538 0.266182 0.963164
0.316884 0.266253 0.301134 -0.775872 -0.028047 0.630238
0.313532 0.407560 0.296121 -0.797266 0.070956 0.599384
-0.505267 0.235240 -0.312952 -0.524369 0.160802 0.836146
-0.438322 0.076499 -0.268712 -0.545000 -0.016053 0.838252
1.840992 0.512092 0.955278 0.195959 0.102206 0.975249
1.837966 0.631682 0.943401 0.210486 0.294137 0.932279
1.662452 0.653768 0.978409 0.109928 0.298776 0.947935
1.657424 0.523097 0.990985 0.071017 0.092685 0.993133
-0.526368 -0.193538 -0.850893 -0.014466 0.077486 -0.996887
-0.552806 0.012853 -0.849860 -0.023896 -0.053621 -0.998260
-0.065158 0.000120 -0.862788 -0.044923 -0.054476 -0.997497
-0.065158 -0.212511 -0.860204 -0.046113 0.078860 -0.995788
1.468861 0.586414 0.425317 0.727317 0.157231 -0.668020
1.505450 0.471246 0.430246 0.707205 0.121189 -0.696493
1.301654 0.398014 0.186431 0.781549 0.070040 -0.619861
1.295291 0.504172 0.176915 0.800409 0.081668 -0.593829
0.858149 0.136522 -0.461032 0.963317 0.116611 -0.241615
0.832455 0.233808 -0.478707 0.963408 0.148045 -0.223365
0.911696 0.069684 -0.728842 0.984985 0.172430 -0.007599
0.873335 0.252489 -0.717009 0.975311 0.220679 -0.003998
-1.061259 0.273298 -0.598110 -0.797479 0.375378 0.472274
-1.077446 0.038292 -0.624262 -0.830409 0.002686 0.557115
-1.091397 -0.055065 -0.745657 -0.958220 -0.019227 -0.285318
-1.091149 0.157381 -0.736456 -0.945158 0.202918 -0.255867
-1.040455 0.025585 -0.840430 -0.546953 -0.017365 -0.836970
-0.987579 -0.174565 -0.843325 -0.386486 0.025391 -0.921934
1.953013 0.695698 0.881472 0.788751 0.602008 0.124058
2.013479 0.609596 0.908393 0.896634 0.381573 0.224525
0.415726 -0.230547 -0.899068 -0.086123 0.107395 -0.990448
0.401881 -0.010732 -0.888885 -0.080660 -0.041871 -0.995849
0.897551 -0.062149 -0.934442 0.595782 0.056215 -0.801141
0.860617 0.191143 -0.848173 0.958403 0.206732 -0.196600
0.904374 0.001441 -0.835270 0.972411 0.151952 -0.176824
4 0 1 2 3
4 4 5 6 7
4 8 9 10 11
4 12 13 14 15
4 16 7 6 17
4 18 19 20 21
4 21 20 22 23
4 24 25 26 27
4 28 29 30 31
4 32 33 34 35
4 36 37 38 39
4 35 34 40 41
4 42 43 44 45
4 27 26 46 47
4 48 49 50 51
4 41 40 49 48
4 31 30 37 36
4 23 22 52 53
4 47 46 54 55
4 53 52 43 42
4 56 57 58 59
4 60 61 62 63
4 39 38 64 65
4 55 54 66 67
4 68 69 58 70
4 71 72 73 74
4 75 76 61 60
4 77 78 79 80
4 81 82 83 84
4 85 86 87 88
4 88 87 72 71
4 63 62 89 90
4 90 89 82 81
4 74 73 91 92
4 93 94 95 96
4 97 98 99 100
4 101 102 103 104
4 105 106 107 108
4 109 96 95 110
4 111 112 113 114
4 115 24 116 117
4 118 119 120 121
4 19 116 122 123
4 114 113 124 125
4 126 127 128 129
4 104 103 130 131
4 125 124 106 105
4 123 122 102 101
4 132 133 134 70
4 135 136 137 138
4 139 140 141 142
4 138 137 140 139
4 143 144 145 146
4 142 141 147 148
4 149 150 134 11
4 151 152 144 143
4 153 154 155 156
4 157 158 159 160
4 146 145 161 162
4 162 161 158 157
4 163 164 165 166
4 167 168 169 170
4 171 172 173 174
4 175 176 172 171
4 177 178 179 180
4 181 182 183 184
4 185 186 187 188
4 189 190 191 192
4 192 191 193 194
4 194 193 195 196
4 180 179 197 198
4 174 173 178 177
4 199 200 201 202
4 203 204 190 189
4 205 206 207 59
4 208 209 207 17
4 45 44 1 0
4 67 66 5 4
4 65 64 9 8
4 51 50 15 14
4 92 91 57 56
4 84 83 78 77
4 131 130 94 93
4 108 107 119 118
4 148 147 133 132
4 160 159 154 153
4 198 197 200 199
4 196 195 209 208
4 22 123 101 52
4 112 32 35 113
4 117 116 19 18
4 184 183 176 175
4 119 14 13 120
4 107 51 14 119
4 170 169 150 149
4 106 48 51 107
4 166 165 152 151
4 100 99 76 75
4 202 201 186 185
4 44 131 93 1
4 113 35 41 124
4 37 125 105 38
4 46 192 194 54
4 52 101 104 43
4 156 155 168 167
4 80 79 127 126
4 124 41 48 106
4 85 204 182 181
4 1 93 96 2
4 43 104 131 44
4 3 2 96 109
4 20 19 123 22
4 165 100 75 152
4 29 111 114 30
4 98 181 184 99
4 176 18 21 172
4 130 67 4 94
4 188 187 206 205
4 121 149 11 10
4 94 4 7 95
4 203 25 24 115
4 89 177 180 82
4 122 27 47 102
4 66 196 208 5
4 83 198 199 78
4 204 203 115 182
4 9 118 121 10
4 110 95 7 16
4 30 114 125 37
4 145 63 90 161
4 206 16 17 207
4 102 47 55 103
4 150 68 70 134
4 135 86 98 97
4 187 110 16 206
4 116 24 27 122
4 173 23 53 178
4 26 189 192 46
4 28 136 164 163
4 129 128 69 68
4 103 55 67 130
4 38 105 108 64
4 128 188 205 69
4 200 0 3 201
4 172 21 23 173
4 64 108 118 9
4 144 60 63 145
4 136 135 97 164
4 195 92 56 209
4 155 80 126 168
4 178 53 42 179
4 69 205 59 58
4 179 42 45 197
4 168 126 129 169
4 201 3 109 186
4 193 74 92 195
4 25 203 189 26
4 186 109 110 187
4 127 185 188 128
4 78 199 202 79
4 182 115 117 183
4 197 45 0 200
4 5 208 17 6
4 209 56 59 207
4 183 117 18 176
4 73 142 148 91
4 54 194 196 66
4 158 81 84 159
4 72 139 142 73
4 61 171 174 62
4 79 202 185 127
4 164 97 100 165
4 76 175 171 61
4 191 71 74 193
4 204 85 88 190
4 87 138 139 72
4 62 174 177 89
4 33 143 146 34
4 111 163 166 112
4 190 88 71 191
4 99 184 175 76
4 82 180 198 83
4 86 85 181 98
4 154 77 80 155
4 159 84 77 154
4 120 170 149 121
4 152 75 60 144
4 133 8 11 134
4 86 135 138 87
4 91 148 132 57
4 34 146 162 40
4 49 157 160 50
4 57 132 70 58
4 161 90 81 158
4 12 156 167 13
4 169 129 68 150
4 156 12 15 153
4 32 151 143 33
4 40 162 157 49
4 13 167 170 120
4 136 28 31 137
4 140 36 39 141
4 29 28 163 111
4 112 166 151 32
4 141 39 65 147
4 50 160 153 15
4 137 31 36 140
4 147 65 8 133
